<svg width="7" height="31" viewBox="0 0 7 31" fill="none" xmlns="http://www.w3.org/2000/svg">
<path d="M0.599976 27.6001C0.599976 26.8044 0.916025 26.0414 1.4786 25.4788C2.04117 24.9162 2.80418 24.6001 3.59977 24.6001C4.39537 24.6001 5.15838 24.9162 5.72095 25.4788C6.28352 26.0414 6.59957 26.8044 6.59957 27.6001C6.59957 28.3957 6.28352 29.1588 5.72095 29.7214C5.15838 30.284 4.39537 30.6001 3.59977 30.6001C2.80418 30.6001 2.04117 30.284 1.4786 29.7214C0.916025 29.1588 0.599976 28.3957 0.599976 27.6001ZM0.599976 15.6001C0.599976 14.8044 0.916025 14.0414 1.4786 13.4788C2.04117 12.9162 2.80418 12.6001 3.59977 12.6001C4.39537 12.6001 5.15838 12.9162 5.72095 13.4788C6.28352 14.0414 6.59957 14.8044 6.59957 15.6001C6.59957 16.3957 6.28352 17.1588 5.72095 17.7214C5.15838 18.284 4.39537 18.6001 3.59977 18.6001C2.80418 18.6001 2.04117 18.284 1.4786 17.7214C0.916025 17.1588 0.599976 16.3957 0.599976 15.6001ZM0.599976 3.6001C0.599976 2.80445 0.916025 2.04139 1.4786 1.47878C2.04117 0.916168 2.80418 0.600098 3.59977 0.600098C4.39537 0.600098 5.15838 0.916168 5.72095 1.47878C6.28352 2.04139 6.59957 2.80445 6.59957 3.6001C6.59957 4.39575 6.28352 5.15881 5.72095 5.72142C5.15838 6.28403 4.39537 6.6001 3.59977 6.6001C2.80418 6.6001 2.04117 6.28403 1.4786 5.72142C0.916025 5.15881 0.599976 4.39575 0.599976 3.6001Z" fill="#00668C"/>
</svg>
