<svg width="144" height="93" viewBox="0 0 144 93" fill="none" xmlns="http://www.w3.org/2000/svg">
<path d="M12.207 67.468C10.023 67.468 7.93 67.182 5.928 66.61C3.926 66.012 2.314 65.245 1.092 64.309L3.237 59.551C4.407 60.383 5.785 61.072 7.371 61.618C8.983 62.138 10.608 62.398 12.246 62.398C13.494 62.398 14.495 62.281 15.249 62.047C16.029 61.787 16.601 61.436 16.965 60.994C17.329 60.552 17.511 60.045 17.511 59.473C17.511 58.745 17.225 58.173 16.653 57.757C16.081 57.315 15.327 56.964 14.391 56.704C13.455 56.418 12.415 56.158 11.271 55.924C10.153 55.664 9.022 55.352 7.878 54.988C6.76 54.624 5.733 54.156 4.797 53.584C3.861 53.012 3.094 52.258 2.496 51.322C1.924 50.386 1.638 49.19 1.638 47.734C1.638 46.174 2.054 44.757 2.886 43.483C3.744 42.183 5.018 41.156 6.708 40.402C8.424 39.622 10.569 39.232 13.143 39.232C14.859 39.232 16.549 39.44 18.213 39.856C19.877 40.246 21.346 40.844 22.62 41.65L20.67 46.447C19.396 45.719 18.122 45.186 16.848 44.848C15.574 44.484 14.326 44.302 13.104 44.302C11.882 44.302 10.881 44.445 10.101 44.731C9.321 45.017 8.762 45.394 8.424 45.862C8.086 46.304 7.917 46.824 7.917 47.422C7.917 48.124 8.203 48.696 8.775 49.138C9.347 49.554 10.101 49.892 11.037 50.152C11.973 50.412 13 50.672 14.118 50.932C15.262 51.192 16.393 51.491 17.511 51.829C18.655 52.167 19.695 52.622 20.631 53.194C21.567 53.766 22.321 54.52 22.893 55.456C23.491 56.392 23.79 57.575 23.79 59.005C23.79 60.539 23.361 61.943 22.503 63.217C21.645 64.491 20.358 65.518 18.642 66.298C16.952 67.078 14.807 67.468 12.207 67.468ZM40.8211 45.706C42.4851 45.706 43.9671 46.044 45.2671 46.72C46.5931 47.37 47.6331 48.384 48.3871 49.762C49.1411 51.114 49.5181 52.856 49.5181 54.988V67H43.4341V55.924C43.4341 54.234 43.0571 52.986 42.3031 52.18C41.5751 51.374 40.5351 50.971 39.1831 50.971C38.2211 50.971 37.3501 51.179 36.5701 51.595C35.8161 51.985 35.2181 52.596 34.7761 53.428C34.3601 54.26 34.1521 55.326 34.1521 56.626V67H28.0681V38.062H34.1521V51.829L32.7871 50.074C33.5411 48.67 34.6201 47.591 36.0241 46.837C37.4281 46.083 39.0271 45.706 40.8211 45.706ZM65.5593 67.312C63.3233 67.312 61.3343 66.844 59.5923 65.908C57.8763 64.972 56.5113 63.698 55.4973 62.086C54.5093 60.448 54.0153 58.589 54.0153 56.509C54.0153 54.403 54.5093 52.544 55.4973 50.932C56.5113 49.294 57.8763 48.02 59.5923 47.11C61.3343 46.174 63.3233 45.706 65.5593 45.706C67.7693 45.706 69.7453 46.174 71.4873 47.11C73.2293 48.02 74.5943 49.281 75.5823 50.893C76.5703 52.505 77.0643 54.377 77.0643 56.509C77.0643 58.589 76.5703 60.448 75.5823 62.086C74.5943 63.698 73.2293 64.972 71.4873 65.908C69.7453 66.844 67.7693 67.312 65.5593 67.312ZM65.5593 62.32C66.5733 62.32 67.4833 62.086 68.2893 61.618C69.0953 61.15 69.7323 60.487 70.2003 59.629C70.6683 58.745 70.9023 57.705 70.9023 56.509C70.9023 55.287 70.6683 54.247 70.2003 53.389C69.7323 52.531 69.0953 51.868 68.2893 51.4C67.4833 50.932 66.5733 50.698 65.5593 50.698C64.5453 50.698 63.6353 50.932 62.8293 51.4C62.0233 51.868 61.3733 52.531 60.8793 53.389C60.4113 54.247 60.1773 55.287 60.1773 56.509C60.1773 57.705 60.4113 58.745 60.8793 59.629C61.3733 60.487 62.0233 61.15 62.8293 61.618C63.6353 62.086 64.5453 62.32 65.5593 62.32ZM93.923 67.312C92.155 67.312 90.608 66.922 89.282 66.142C87.956 65.362 86.916 64.179 86.162 62.593C85.434 60.981 85.07 58.953 85.07 56.509C85.07 54.039 85.421 52.011 86.123 50.425C86.825 48.839 87.839 47.656 89.165 46.876C90.491 46.096 92.077 45.706 93.923 45.706C95.899 45.706 97.667 46.161 99.227 47.071C100.813 47.955 102.061 49.203 102.971 50.815C103.907 52.427 104.375 54.325 104.375 56.509C104.375 58.719 103.907 60.63 102.971 62.242C102.061 63.854 100.813 65.102 99.227 65.986C97.667 66.87 95.899 67.312 93.923 67.312ZM81.521 74.566V46.018H87.332V50.308L87.215 56.548L87.605 62.749V74.566H81.521ZM92.87 62.32C93.884 62.32 94.781 62.086 95.561 61.618C96.367 61.15 97.004 60.487 97.472 59.629C97.966 58.745 98.213 57.705 98.213 56.509C98.213 55.287 97.966 54.247 97.472 53.389C97.004 52.531 96.367 51.868 95.561 51.4C94.781 50.932 93.884 50.698 92.87 50.698C91.856 50.698 90.946 50.932 90.14 51.4C89.334 51.868 88.697 52.531 88.229 53.389C87.761 54.247 87.527 55.287 87.527 56.509C87.527 57.705 87.761 58.745 88.229 59.629C88.697 60.487 89.334 61.15 90.14 61.618C90.946 62.086 91.856 62.32 92.87 62.32ZM108.838 67V46.018H114.922V67H108.838ZM111.88 43.093C110.762 43.093 109.852 42.768 109.15 42.118C108.448 41.468 108.097 40.662 108.097 39.7C108.097 38.738 108.448 37.932 109.15 37.282C109.852 36.632 110.762 36.307 111.88 36.307C112.998 36.307 113.908 36.619 114.61 37.243C115.312 37.841 115.663 38.621 115.663 39.583C115.663 40.597 115.312 41.442 114.61 42.118C113.934 42.768 113.024 43.093 111.88 43.093ZM118.306 67L127.705 54.676L127.588 58.03L118.579 46.018H125.404L131.098 53.857L128.524 53.935L134.413 46.018H140.887L131.839 57.913V54.637L141.199 67H134.296L128.329 58.654L130.864 59.005L124.936 67H118.306Z" fill="#00BAFF"/>
<path d="M74.8985 5.78174C73.1878 3.61901 72.302 3.40821 70.0764 4.66896C66.8171 6.51549 63.5923 8.42688 60.3249 10.2612C58.8939 11.0639 58.3182 12.2193 58.3304 13.8286C58.3689 19.0642 58.3547 24.3018 58.3608 29.5394C58.3608 29.9062 58.3608 30.2711 58.3608 30.6461C56.0521 30.3846 55.0387 29.3306 55.0326 27.2023C55.0184 21.8309 55.0447 16.4576 55.0002 11.0862C54.99 9.91667 55.4704 9.20725 56.4433 8.64984C61.1863 5.9297 65.9192 3.18727 70.6399 0.426598C71.5824 -0.124726 72.4236 -0.153103 73.3824 0.408355C78.1294 3.19133 82.8927 5.94389 87.6621 8.69038C88.562 9.20927 89.01 9.85992 88.9998 10.9646C88.9532 16.5386 88.9715 22.1127 88.9856 27.6888C88.9877 28.5664 88.7627 29.2718 87.962 29.7339C83.9548 32.0426 79.9537 34.3574 75.9545 36.666C74.8255 35.2188 75.1843 33.3398 76.8281 32.3325C79.0719 30.9562 81.332 29.6002 83.6325 28.3212C85.0493 27.5327 85.7081 26.499 85.6676 24.8207C85.5784 21.0384 85.6534 17.2541 85.6432 13.4699C85.6432 12.9794 85.5358 12.4909 85.4547 11.8058C84.7027 12.1402 84.0785 12.3591 83.5109 12.6794C80.3084 14.4894 77.1362 16.3562 73.9154 18.1338C72.5047 18.9122 71.9291 20.0351 71.9392 21.5938C71.9716 26.7969 71.9757 32 71.9858 37.2032C71.9858 37.6268 71.9493 38.0504 71.9291 38.4801C69.7461 38.2349 68.6373 37.1119 68.6231 35.1438C68.5866 29.8393 68.6029 24.5349 68.5502 19.2324C68.536 17.8501 69.1015 16.9805 70.2994 16.3197C73.7553 14.4104 77.1727 12.4301 80.6023 10.472C80.9773 10.2572 81.3299 10.0079 81.6907 9.77681C80.4726 7.7884 79.1449 7.36477 77.2599 8.42485C73.6722 10.4457 70.1129 12.5172 66.5395 14.5644C65.5909 15.1076 65.222 15.9346 65.224 17.0048C65.2361 22.4451 65.228 27.8834 65.228 33.3236C65.228 33.6864 65.228 34.0493 65.228 34.3938C63.2923 34.5823 61.9444 33.3257 61.9302 31.3433C61.8998 26.8841 61.914 22.4248 61.912 17.9636C61.912 16.9846 61.9464 16.0035 61.9039 15.0245C61.8552 13.8874 62.3113 13.1334 63.3126 12.5679C66.7807 10.6079 70.2163 8.59309 73.66 6.59251C74.0634 6.35941 74.4404 6.0797 74.8965 5.77769L74.8985 5.78174Z" fill="#00668C"/>
<path d="M82.3211 17.1345C82.3211 19.7837 82.3454 22.2384 82.2927 24.6909C82.2866 25.0132 81.9583 25.4429 81.6583 25.6253C79.6476 26.8577 77.6044 28.0374 75.4296 29.3164C75.391 28.9232 75.3424 28.6495 75.3424 28.3739C75.3363 26.3814 75.3606 24.3889 75.3282 22.3985C75.316 21.608 75.5674 21.0708 76.2788 20.6675C78.2632 19.5446 80.2151 18.3689 82.3231 17.1325L82.3211 17.1345Z" fill="#00BAFF"/>
<path d="M37.6331 89V77.8H42.6571C43.9478 77.8 44.9398 78.0613 45.6331 78.584C46.3265 79.096 46.6731 79.8 46.6731 80.696C46.6731 81.304 46.5345 81.816 46.2571 82.232C45.9905 82.648 45.6278 82.968 45.1691 83.192C44.7105 83.416 44.2145 83.528 43.6811 83.528L43.9691 83.048C44.6091 83.048 45.1745 83.16 45.6651 83.384C46.1558 83.608 46.5451 83.9387 46.8331 84.376C47.1211 84.8027 47.2651 85.336 47.2651 85.976C47.2651 86.936 46.9025 87.6827 46.1771 88.216C45.4625 88.7387 44.3958 89 42.9771 89H37.6331ZM39.2331 87.704H42.9131C43.7985 87.704 44.4758 87.5547 44.9451 87.256C45.4145 86.9573 45.6491 86.488 45.6491 85.848C45.6491 85.1973 45.4145 84.7227 44.9451 84.424C44.4758 84.1253 43.7985 83.976 42.9131 83.976H39.0891V82.68H42.5131C43.3238 82.68 43.9531 82.5307 44.4011 82.232C44.8491 81.9333 45.0731 81.4853 45.0731 80.888C45.0731 80.2907 44.8491 79.8427 44.4011 79.544C43.9531 79.2453 43.3238 79.096 42.5131 79.096H39.2331V87.704ZM53.0865 89.096C52.3612 89.096 51.7212 88.9627 51.1665 88.696C50.6225 88.4293 50.1958 88.024 49.8865 87.48C49.5878 86.9253 49.4385 86.232 49.4385 85.4V80.52H50.9745V85.224C50.9745 86.056 51.1718 86.68 51.5665 87.096C51.9718 87.512 52.5372 87.72 53.2625 87.72C53.7958 87.72 54.2598 87.6133 54.6545 87.4C55.0492 87.176 55.3532 86.856 55.5665 86.44C55.7798 86.0133 55.8865 85.5013 55.8865 84.904V80.52H57.4225V89H55.9665V86.712L56.2065 87.32C55.9292 87.8853 55.5132 88.3227 54.9585 88.632C54.4038 88.9413 53.7798 89.096 53.0865 89.096ZM60.7146 92.2C60.3093 92.2 59.9146 92.1307 59.5306 91.992C59.1466 91.864 58.816 91.672 58.5386 91.416L59.1946 90.264C59.408 90.4667 59.6426 90.6213 59.8986 90.728C60.1546 90.8347 60.4266 90.888 60.7146 90.888C61.088 90.888 61.3973 90.792 61.6426 90.6C61.888 90.408 62.1173 90.0667 62.3306 89.576L62.8586 88.408L63.0186 88.216L66.3466 80.52H67.8506L63.7386 89.848C63.4933 90.4453 63.216 90.9147 62.9066 91.256C62.608 91.5973 62.2773 91.8373 61.9146 91.976C61.552 92.1253 61.152 92.2 60.7146 92.2ZM62.7306 89.272L58.8586 80.52H60.4586L63.7546 88.072L62.7306 89.272ZM77.357 89.096C76.4503 89.096 75.6503 88.9093 74.957 88.536C74.2743 88.1627 73.741 87.6507 73.357 87C72.9837 86.3493 72.797 85.6027 72.797 84.76C72.797 83.9173 72.9783 83.1707 73.341 82.52C73.7143 81.8693 74.221 81.3627 74.861 81C75.5117 80.6267 76.2423 80.44 77.053 80.44C77.8743 80.44 78.5997 80.6213 79.229 80.984C79.8583 81.3467 80.349 81.8587 80.701 82.52C81.0637 83.1707 81.245 83.9333 81.245 84.808C81.245 84.872 81.2397 84.9467 81.229 85.032C81.229 85.1173 81.2237 85.1973 81.213 85.272H73.997V84.168H80.413L79.789 84.552C79.7997 84.008 79.6877 83.5227 79.453 83.096C79.2183 82.6693 78.893 82.3387 78.477 82.104C78.0717 81.8587 77.597 81.736 77.053 81.736C76.5197 81.736 76.045 81.8587 75.629 82.104C75.213 82.3387 74.8877 82.6747 74.653 83.112C74.4183 83.5387 74.301 84.0293 74.301 84.584V84.84C74.301 85.4053 74.429 85.912 74.685 86.36C74.9517 86.7973 75.3197 87.1387 75.789 87.384C76.2583 87.6293 76.797 87.752 77.405 87.752C77.9063 87.752 78.3597 87.6667 78.765 87.496C79.181 87.3253 79.5437 87.0693 79.853 86.728L80.701 87.72C80.317 88.168 79.837 88.5093 79.261 88.744C78.6957 88.9787 78.061 89.096 77.357 89.096ZM88.4075 89V87.208L88.3275 86.872V83.816C88.3275 83.1653 88.1355 82.664 87.7515 82.312C87.3782 81.9493 86.8128 81.768 86.0555 81.768C85.5542 81.768 85.0635 81.8533 84.5835 82.024C84.1035 82.184 83.6982 82.4027 83.3675 82.68L82.7275 81.528C83.1648 81.176 83.6875 80.9093 84.2955 80.728C84.9142 80.536 85.5595 80.44 86.2315 80.44C87.3942 80.44 88.2902 80.7227 88.9195 81.288C89.5488 81.8533 89.8635 82.7173 89.8635 83.88V89H88.4075ZM85.6235 89.096C84.9942 89.096 84.4395 88.9893 83.9595 88.776C83.4902 88.5627 83.1275 88.2693 82.8715 87.896C82.6155 87.512 82.4875 87.08 82.4875 86.6C82.4875 86.1413 82.5942 85.7253 82.8075 85.352C83.0315 84.9787 83.3888 84.68 83.8795 84.456C84.3808 84.232 85.0528 84.12 85.8955 84.12H88.5835V85.224H85.9595C85.1915 85.224 84.6742 85.352 84.4075 85.608C84.1408 85.864 84.0075 86.1733 84.0075 86.536C84.0075 86.952 84.1728 87.288 84.5035 87.544C84.8342 87.7893 85.2928 87.912 85.8795 87.912C86.4555 87.912 86.9568 87.784 87.3835 87.528C87.8208 87.272 88.1355 86.8987 88.3275 86.408L88.6315 87.464C88.4288 87.9653 88.0715 88.3653 87.5595 88.664C87.0475 88.952 86.4022 89.096 85.6235 89.096ZM95.138 89.096C94.434 89.096 93.762 89 93.122 88.808C92.4927 88.616 91.9967 88.3813 91.634 88.104L92.274 86.888C92.6367 87.1333 93.0847 87.3413 93.618 87.512C94.1513 87.6827 94.6953 87.768 95.25 87.768C95.9647 87.768 96.4767 87.6667 96.786 87.464C97.106 87.2613 97.266 86.9787 97.266 86.616C97.266 86.3493 97.17 86.1413 96.978 85.992C96.786 85.8427 96.53 85.7307 96.21 85.656C95.9007 85.5813 95.554 85.5173 95.17 85.464C94.786 85.4 94.402 85.3253 94.018 85.24C93.634 85.144 93.282 85.016 92.962 84.856C92.642 84.6853 92.386 84.456 92.194 84.168C92.002 83.8693 91.906 83.4747 91.906 82.984C91.906 82.472 92.05 82.024 92.338 81.64C92.626 81.256 93.0313 80.9627 93.554 80.76C94.0873 80.5467 94.7167 80.44 95.442 80.44C95.9967 80.44 96.5567 80.5093 97.122 80.648C97.698 80.776 98.1673 80.9627 98.53 81.208L97.874 82.424C97.49 82.168 97.09 81.992 96.674 81.896C96.258 81.8 95.842 81.752 95.426 81.752C94.754 81.752 94.2527 81.864 93.922 82.088C93.5913 82.3013 93.426 82.5787 93.426 82.92C93.426 83.208 93.522 83.432 93.714 83.592C93.9167 83.7413 94.1727 83.8587 94.482 83.944C94.802 84.0293 95.154 84.104 95.538 84.168C95.922 84.2213 96.306 84.296 96.69 84.392C97.074 84.4773 97.4207 84.6 97.73 84.76C98.05 84.92 98.306 85.144 98.498 85.432C98.7007 85.72 98.802 86.104 98.802 86.584C98.802 87.096 98.6527 87.5387 98.354 87.912C98.0553 88.2853 97.634 88.5787 97.09 88.792C96.546 88.9947 95.8953 89.096 95.138 89.096ZM100.933 92.2C100.528 92.2 100.133 92.1307 99.7494 91.992C99.3654 91.864 99.0347 91.672 98.7574 91.416L99.4134 90.264C99.6267 90.4667 99.8614 90.6213 100.117 90.728C100.373 90.8347 100.645 90.888 100.933 90.888C101.307 90.888 101.616 90.792 101.861 90.6C102.107 90.408 102.336 90.0667 102.549 89.576L103.077 88.408L103.237 88.216L106.565 80.52H108.069L103.957 89.848C103.712 90.4453 103.435 90.9147 103.125 91.256C102.827 91.5973 102.496 91.8373 102.133 91.976C101.771 92.1253 101.371 92.2 100.933 92.2ZM102.949 89.272L99.0774 80.52H100.677L103.973 88.072L102.949 89.272Z" fill="#00BAFF"/>
<path d="M1 84H31" stroke="#00668C" stroke-linecap="round"/>
<path d="M112 84.5H142" stroke="#00668C" stroke-linecap="round"/>
</svg>
