<svg width="84" height="76" viewBox="0 0 84 76" fill="none" xmlns="http://www.w3.org/2000/svg">
<path d="M8.66683 8.66658H21.1668L29.5002 0.333252H54.5002L62.8335 8.66658H75.3335C77.5436 8.66658 79.6633 9.54456 81.2261 11.1074C82.7889 12.6702 83.6668 14.7898 83.6668 16.9999V66.9999C83.6668 69.2101 82.7889 71.3297 81.2261 72.8925C79.6633 74.4553 77.5436 75.3333 75.3335 75.3333H8.66683C6.45669 75.3333 4.33708 74.4553 2.77427 72.8925C1.21147 71.3297 0.333496 69.2101 0.333496 66.9999V16.9999C0.333496 14.7898 1.21147 12.6702 2.77427 11.1074C4.33708 9.54456 6.45669 8.66658 8.66683 8.66658ZM42.0002 21.1666C36.4748 21.1666 31.1758 23.3615 27.2688 27.2685C23.3618 31.1755 21.1668 36.4746 21.1668 41.9999C21.1668 47.5253 23.3618 52.8243 27.2688 56.7313C31.1758 60.6383 36.4748 62.8332 42.0002 62.8332C47.5255 62.8332 52.8246 60.6383 56.7316 56.7313C60.6386 52.8243 62.8335 47.5253 62.8335 41.9999C62.8335 36.4746 60.6386 31.1755 56.7316 27.2685C52.8246 23.3615 47.5255 21.1666 42.0002 21.1666ZM42.0002 29.4999C45.3154 29.4999 48.4948 30.8169 50.839 33.1611C53.1832 35.5053 54.5002 38.6847 54.5002 41.9999C54.5002 45.3151 53.1832 48.4945 50.839 50.8388C48.4948 53.183 45.3154 54.4999 42.0002 54.4999C38.685 54.4999 35.5055 53.183 33.1613 50.8388C30.8171 48.4945 29.5002 45.3151 29.5002 41.9999C29.5002 38.6847 30.8171 35.5053 33.1613 33.1611C35.5055 30.8169 38.685 29.4999 42.0002 29.4999Z" fill="white"/>
</svg>
