<svg width="44" height="44" viewBox="0 0 44 44" fill="none" xmlns="http://www.w3.org/2000/svg">
<g id="solar:pen-bold">
<path id="Vector" d="M20.9 33.2952L34.4593 19.7359C32.178 18.7834 30.1062 17.3918 28.3616 15.6402C26.6092 13.8953 25.217 11.8228 24.2641 9.54072L10.7048 23.1001C9.64695 24.1579 9.11712 24.6877 8.66245 25.2707C8.12548 25.9587 7.66505 26.7032 7.28929 27.4909C6.97212 28.1582 6.73562 28.8696 6.26262 30.2886L3.76562 37.7741C3.6507 38.1168 3.63364 38.4848 3.71638 38.8367C3.79912 39.1886 3.97837 39.5104 4.23398 39.766C4.4896 40.0216 4.81144 40.2009 5.16333 40.2836C5.51522 40.3664 5.88322 40.3493 6.22595 40.2344L13.7115 37.7374C15.1323 37.2644 15.8418 37.0279 16.5091 36.7107C17.2975 36.3349 18.0418 35.8747 18.7293 35.3376C19.3123 34.8829 19.8421 34.3531 20.9 33.2952ZM38.2213 15.9739C39.5732 14.6219 40.3328 12.7883 40.3328 10.8763C40.3328 8.96434 39.5732 7.13069 38.2213 5.77872C36.8693 4.42676 35.0357 3.66724 33.1237 3.66724C31.2117 3.66724 29.3781 4.42676 28.0261 5.77872L26.4 7.40489L26.4696 7.60839C27.271 9.90137 28.5824 11.9825 30.305 13.6951C32.0687 15.4692 34.2227 16.8064 36.5951 17.6001L38.2213 15.9739Z" fill="#00668C"/>
</g>
</svg>
